<svg xmlns="http://www.w3.org/2000/svg" width="56" height="56" viewBox="0 0 56 56" role="img" aria-labelledby="isotypeWhiteTitle">
  <title id="isotypeWhiteTitle">Integrasys símbolo</title>
  <rect width="56" height="56" fill="none"/>
  <path d="M17 8a4 4 0 0 1 3.4 6.1L8.8 28l11.6 13.9a4 4 0 1 1-6.1 5.2L2.5 30.8a7 7 0 0 1 0-5.6L14.5 9.3A4 4 0 0 1 17 8z" fill="#ffffff"/>
  <path d="M39 8a4 4 0 0 0-3.4 6.1L47.2 28 35.6 41.9a4 4 0 1 0 6.1 5.2l12-15.7a7 7 0 0 0 0-5.6L41.5 9.3A4 4 0 0 0 39 8z" fill="#ffffff"/>
  <circle cx="28" cy="28" r="4" fill="#ffffff"/>
</svg>
