<svg xmlns="http://www.w3.org/2000/svg" width="240" height="64" viewBox="0 0 240 64" role="img" aria-labelledby="integrasysTitle">
  <title id="integrasysTitle">Integrasys - Identidad corporativa</title>
  <rect width="240" height="64" rx="12" fill="#ffffff"/>
  <g fill="#2563eb" transform="translate(16 12)">
    <path d="M16 4a4 4 0 0 1 3.3 6.3L12.6 24l6.7 13.6a4 4 0 0 1-7.2 3.6L3.3 27.7a6 6 0 0 1 0-5.4L12.8 4.7A4 4 0 0 1 16 4z" opacity=".9"/>
    <path d="M60 4a4 4 0 0 0-3.3 6.3l6.7 13.7-6.7 13.6a4 4 0 1 0 7.2 3.6l9.4-18.5a6 6 0 0 0 0-5.4L63.9 4.7A4 4 0 0 0 60 4z" opacity=".9"/>
    <circle cx="38" cy="20" r="6" fill="#4f46e5"/>
  </g>
  <text x="96" y="39" font-family="Segoe UI, Arial, sans-serif" font-size="28" font-weight="700" fill="#111827" letter-spacing="0.5">
    INTEGRASYS
  </text>
  <text x="100" y="52" font-family="Segoe UI, Arial, sans-serif" font-size="12" fill="#475569">computación</text>
</svg>
