<svg xmlns="http://www.w3.org/2000/svg" width="160" height="48" viewBox="0 0 160 48" role="img" aria-labelledby="logoNavTitle">
  <title id="logoNavTitle">Integrasys</title>
  <rect width="160" height="48" fill="none"/>
  <g transform="translate(12 6)" fill="#ffffff">
    <path d="M22.5 2a4.5 4.5 0 0 1 3.7 7.1L17.8 24l8.4 14.9a4.5 4.5 0 1 1-7.8 4.2L8.2 26.2a7 7 0 0 1 0-6.4L18.4 3.2A4.5 4.5 0 0 1 22.5 2z" opacity=".95"/>
    <path d="M69.5 2a4.5 4.5 0 0 0-3.7 7.1L73.2 24l-8.4 14.9a4.5 4.5 0 1 0 7.8 4.2l10.2-16.9a7 7 0 0 0 0-6.4L73.6 3.2A4.5 4.5 0 0 0 69.5 2z" opacity=".95"/>
    <circle cx="46" cy="22" r="6" fill="#f8fafc"/>
  </g>
  <text x="90" y="31" font-family="Segoe UI, Arial, sans-serif" font-size="20" font-weight="600" fill="#ffffff">
    INTEGRASYS
  </text>
</svg>
